<?xml version="1.0" standalone="no"?>
<!DOCTYPE svg PUBLIC "-//W3C//DTD SVG 1.1//EN" "http://www.w3.org/Graphics/SVG/1.1/DTD/svg11.dtd">
<svg width="420mm" height="256mm" viewBox="-210 -128 420 256" xmlns="http://www.w3.org/2000/svg" version="1.1">
<title>OpenSCAD Model</title>
<path d="
M -186.558,127.764 L -186.218,127 L -185.727,126.323 L -185.105,125.764 L -184.381,125.346 L -183.586,125.087
 L -182.754,125 L -182.749,125.001 L -182.749,125 L -175.759,125 L -175.759,125.022 L -175.336,125.022
 L -174.518,125.196 L -173.754,125.536 L -173.078,126.027 L -172.518,126.649 L -172.1,127.373 L -171.896,128
 L -16.5535,128 L -16.5535,84.6886 L -16.5516,84.6886 L -16.5516,84.647 L -16.5364,84.5754 L -16.5066,84.5085
 L -16.4635,84.4492 L -16.4091,84.4002 L -16.3457,84.3636 L -16.2761,84.341 L -16.2082,84.3339 L -16.2082,84.3353
 L -16.1666,84.3353 L -16.095,84.3505 L -16.0281,84.3803 L -15.9689,84.4233 L -15.9199,84.4777 L -15.8832,84.5411
 L -15.8606,84.6108 L -15.853,84.6836 L -15.8535,84.6886 L -15.853,84.6886 L -15.853,128 L -11.1524,128
 L -11.1524,84.6886 L -11.1505,84.6886 L -11.1505,84.647 L -11.1353,84.5754 L -11.1055,84.5085 L -11.0625,84.4492
 L -11.008,84.4002 L -10.9446,84.3636 L -10.875,84.341 L -10.8072,84.3339 L -10.8072,84.3353 L -10.7655,84.3353
 L -10.6939,84.3505 L -10.627,84.3803 L -10.5678,84.4233 L -10.5188,84.4777 L -10.4822,84.5411 L -10.4595,84.6108
 L -10.4519,84.6836 L -10.4524,84.6886 L -10.4519,84.6886 L -10.4519,128 L -5.75134,128 L -5.75134,84.6886
 L -5.74942,84.6886 L -5.74942,84.647 L -5.73419,84.5754 L -5.70441,84.5085 L -5.66138,84.4492 L -5.60695,84.4002
 L -5.54353,84.3636 L -5.47389,84.341 L -5.40607,84.3339 L -5.40607,84.3353 L -5.36446,84.3353 L -5.29283,84.3505
 L -5.22594,84.3803 L -5.16669,84.4233 L -5.11769,84.4777 L -5.08109,84.5411 L -5.05846,84.6108 L -5.0508,84.6836
 L -5.05132,84.6886 L -5.0508,84.6886 L -5.0508,128 L -0.350266,128 L -0.350266,84.6886 L -0.348343,84.6886
 L -0.348343,84.647 L -0.333115,84.5754 L -0.303329,84.5085 L -0.2603,84.4492 L -0.205872,84.4002 L -0.142456,84.3636
 L -0.0728149,84.341 L -0.00498962,84.3339 L -0.00498962,84.3353 L 0.0366058,84.3353 L 0.108231,84.3505 L 0.175125,84.3803
 L 0.234375,84.4233 L 0.283371,84.4777 L 0.319977,84.5411 L 0.342606,84.6108 L 0.350266,84.6836 L 0.349731,84.6886
 L 0.350266,84.6886 L 0.350266,128 L 5.0508,128 L 5.0508,84.6886 L 5.05272,84.6886 L 5.05272,84.647
 L 5.06795,84.5754 L 5.09772,84.5085 L 5.14078,84.4492 L 5.19518,84.4002 L 5.25861,84.3636 L 5.32825,84.341
 L 5.39607,84.3339 L 5.39607,84.3353 L 5.43768,84.3353 L 5.50931,84.3505 L 5.5762,84.3803 L 5.63544,84.4233
 L 5.68445,84.4777 L 5.72105,84.5411 L 5.74368,84.6108 L 5.75133,84.6836 L 5.75081,84.6886 L 5.75133,84.6886
 L 5.75133,128 L 10.4519,128 L 10.4519,84.6886 L 10.4538,84.6886 L 10.4538,84.647 L 10.469,84.5754
 L 10.4988,84.5085 L 10.5419,84.4492 L 10.5963,84.4002 L 10.6597,84.3636 L 10.7293,84.341 L 10.7972,84.3339
 L 10.7972,84.3353 L 10.8388,84.3353 L 10.9104,84.3505 L 10.9773,84.3803 L 11.0365,84.4233 L 11.0855,84.4777
 L 11.1221,84.5411 L 11.1448,84.6108 L 11.1524,84.6836 L 11.1519,84.6886 L 11.1524,84.6886 L 11.1524,128
 L 15.853,128 L 15.853,84.6886 L 15.8549,84.6886 L 15.8549,84.647 L 15.8701,84.5754 L 15.8999,84.5085
 L 15.9429,84.4492 L 15.9973,84.4002 L 16.0608,84.3636 L 16.1304,84.341 L 16.1982,84.3339 L 16.1982,84.3353
 L 16.2398,84.3353 L 16.3115,84.3505 L 16.3784,84.3803 L 16.4376,84.4233 L 16.4866,84.4777 L 16.5232,84.5411
 L 16.5458,84.6108 L 16.5535,84.6836 L 16.553,84.6886 L 16.5535,84.6886 L 16.5535,128 L 171.9,128
 L 171.95,127.764 L 172.29,127 L 172.781,126.323 L 173.403,125.764 L 174.127,125.346 L 174.922,125.087
 L 175.754,125 L 175.759,125.001 L 175.759,125 L 182.749,125 L 182.749,125.022 L 183.172,125.022
 L 183.99,125.196 L 184.754,125.536 L 185.431,126.027 L 185.99,126.649 L 186.408,127.373 L 186.612,128
 L 199.249,128 L 199.249,127.999 L 199.254,128 L 201.333,127.781 L 203.321,127.135 L 205.132,126.09
 L 206.685,124.691 L 207.914,123 L 208.765,121.09 L 209.199,119.045 L 209.199,117.995 L 209.254,117.995
 L 209.254,-118 L 209.036,-120.079 L 208.389,-122.067 L 207.344,-123.878 L 205.945,-125.431 L 204.254,-126.66
 L 202.344,-127.511 L 200.299,-127.945 L 199.249,-127.945 L 199.249,-128 L 186.608,-128 L 186.558,-127.764
 L 186.218,-127 L 185.727,-126.323 L 185.105,-125.764 L 184.381,-125.346 L 183.586,-125.087 L 182.754,-125
 L 182.749,-125.001 L 182.749,-125 L 175.759,-125 L 175.759,-125.022 L 175.336,-125.022 L 174.518,-125.196
 L 173.754,-125.536 L 173.078,-126.027 L 172.518,-126.649 L 172.1,-127.373 L 171.896,-128 L 16.5535,-128
 L 16.5535,-87.6886 L 16.5516,-87.6886 L 16.5516,-87.647 L 16.5364,-87.5754 L 16.5066,-87.5085 L 16.4635,-87.4492
 L 16.4091,-87.4002 L 16.3457,-87.3636 L 16.2761,-87.341 L 16.2082,-87.3339 L 16.2082,-87.3353 L 16.1666,-87.3353
 L 16.095,-87.3505 L 16.0281,-87.3803 L 15.9689,-87.4233 L 15.9199,-87.4777 L 15.8832,-87.5411 L 15.8606,-87.6108
 L 15.853,-87.6836 L 15.8535,-87.6886 L 15.853,-87.6886 L 15.853,-128 L 11.1524,-128 L 11.1524,-87.6886
 L 11.1505,-87.6886 L 11.1505,-87.647 L 11.1353,-87.5754 L 11.1055,-87.5085 L 11.0625,-87.4492 L 11.008,-87.4002
 L 10.9446,-87.3636 L 10.875,-87.341 L 10.8072,-87.3339 L 10.8072,-87.3353 L 10.7655,-87.3353 L 10.6939,-87.3505
 L 10.627,-87.3803 L 10.5678,-87.4233 L 10.5188,-87.4777 L 10.4822,-87.5411 L 10.4595,-87.6108 L 10.4519,-87.6836
 L 10.4524,-87.6886 L 10.4519,-87.6886 L 10.4519,-128 L 5.75133,-128 L 5.75133,-87.6886 L 5.74942,-87.6886
 L 5.74942,-87.647 L 5.73419,-87.5754 L 5.70441,-87.5085 L 5.66138,-87.4492 L 5.60695,-87.4002 L 5.54353,-87.3636
 L 5.47389,-87.341 L 5.40607,-87.3339 L 5.40607,-87.3353 L 5.36446,-87.3353 L 5.29283,-87.3505 L 5.22594,-87.3803
 L 5.16669,-87.4233 L 5.11769,-87.4777 L 5.08109,-87.5411 L 5.05846,-87.6108 L 5.0508,-87.6836 L 5.05132,-87.6886
 L 5.0508,-87.6886 L 5.0508,-128 L 0.350266,-128 L 0.350266,-87.6886 L 0.348343,-87.6886 L 0.348343,-87.647
 L 0.333115,-87.5754 L 0.303329,-87.5085 L 0.2603,-87.4492 L 0.205872,-87.4002 L 0.142456,-87.3636 L 0.0728149,-87.341
 L 0.00498962,-87.3339 L 0.00498962,-87.3353 L -0.0366058,-87.3353 L -0.108231,-87.3505 L -0.175125,-87.3803 L -0.234375,-87.4233
 L -0.283371,-87.4777 L -0.319977,-87.5411 L -0.342606,-87.6108 L -0.350266,-87.6836 L -0.349731,-87.6886 L -0.350266,-87.6886
 L -0.350266,-128 L -5.0508,-128 L -5.0508,-87.6886 L -5.05272,-87.6886 L -5.05272,-87.647 L -5.06795,-87.5754
 L -5.09772,-87.5085 L -5.14078,-87.4492 L -5.19518,-87.4002 L -5.25861,-87.3636 L -5.32825,-87.341 L -5.39607,-87.3339
 L -5.39607,-87.3353 L -5.43768,-87.3353 L -5.50931,-87.3505 L -5.5762,-87.3803 L -5.63544,-87.4233 L -5.68445,-87.4777
 L -5.72105,-87.5411 L -5.74368,-87.6108 L -5.75133,-87.6836 L -5.75081,-87.6886 L -5.75134,-87.6886 L -5.75134,-128
 L -10.4519,-128 L -10.4519,-87.6886 L -10.4538,-87.6886 L -10.4538,-87.647 L -10.469,-87.5754 L -10.4988,-87.5085
 L -10.5419,-87.4492 L -10.5963,-87.4002 L -10.6597,-87.3636 L -10.7293,-87.341 L -10.7972,-87.3339 L -10.7972,-87.3353
 L -10.8388,-87.3353 L -10.9104,-87.3505 L -10.9773,-87.3803 L -11.0365,-87.4233 L -11.0855,-87.4777 L -11.1221,-87.5411
 L -11.1448,-87.6108 L -11.1524,-87.6836 L -11.1519,-87.6886 L -11.1524,-87.6886 L -11.1524,-128 L -15.853,-128
 L -15.853,-87.6886 L -15.8549,-87.6886 L -15.8549,-87.647 L -15.8701,-87.5754 L -15.8999,-87.5085 L -15.9429,-87.4492
 L -15.9973,-87.4002 L -16.0608,-87.3636 L -16.1304,-87.341 L -16.1982,-87.3339 L -16.1982,-87.3353 L -16.2398,-87.3353
 L -16.3115,-87.3505 L -16.3784,-87.3803 L -16.4376,-87.4233 L -16.4866,-87.4777 L -16.5232,-87.5411 L -16.5458,-87.6108
 L -16.5535,-87.6836 L -16.553,-87.6886 L -16.5535,-87.6886 L -16.5535,-128 L -171.9,-128 L -171.95,-127.764
 L -172.29,-127 L -172.781,-126.323 L -173.403,-125.764 L -174.127,-125.346 L -174.922,-125.087 L -175.754,-125
 L -175.759,-125.001 L -175.759,-125 L -182.749,-125 L -182.749,-125.022 L -183.172,-125.022 L -183.99,-125.196
 L -184.754,-125.536 L -185.431,-126.027 L -185.99,-126.649 L -186.408,-127.373 L -186.612,-128 L -199.249,-128
 L -199.249,-127.999 L -199.254,-128 L -201.333,-127.781 L -203.321,-127.135 L -205.132,-126.09 L -206.685,-124.691
 L -207.914,-123 L -208.765,-121.09 L -209.199,-119.045 L -209.199,-117.995 L -209.254,-117.995 L -209.254,118
 L -209.036,120.079 L -208.389,122.067 L -207.344,123.878 L -205.945,125.431 L -204.254,126.66 L -202.344,127.511
 L -200.299,127.945 L -199.249,127.945 L -199.249,128 L -186.608,128 z
M -2.69553,-43.6686 L -2.73714,-43.6686 L -2.80878,-43.6838 L -2.87566,-43.7136 L -2.93491,-43.7566 L -2.9839,-43.8111
 L -3.02051,-43.8745 L -3.04314,-43.9441 L -3.0508,-44.0169 L -3.05028,-44.0219 L -3.0508,-44.0219 L -3.0508,-124.645
 L -3.04889,-124.645 L -3.04889,-124.686 L -3.03365,-124.758 L -3.00388,-124.825 L -2.96083,-124.884 L -2.90642,-124.933
 L -2.843,-124.97 L -2.77335,-124.992 L -2.70554,-124.999 L -2.70554,-124.998 L -2.66391,-124.998 L -2.59229,-124.983
 L -2.52539,-124.953 L -2.46616,-124.91 L -2.41716,-124.856 L -2.38054,-124.792 L -2.35791,-124.723 L -2.35027,-124.65
 L -2.3508,-124.645 L -2.35027,-124.645 L -2.35027,-44.0219 L -2.35219,-44.0219 L -2.35219,-43.9803 L -2.3674,-43.9087
 L -2.39719,-43.8418 L -2.44023,-43.7826 L -2.49466,-43.7336 L -2.55806,-43.6969 L -2.6277,-43.6743 L -2.69553,-43.6672
 z
M -8.0966,-43.6686 L -8.13823,-43.6686 L -8.20984,-43.6838 L -8.27675,-43.7136 L -8.33598,-43.7566 L -8.38498,-43.8111
 L -8.42159,-43.8745 L -8.44423,-43.9441 L -8.45187,-44.0169 L -8.45135,-44.0219 L -8.45187,-44.0219 L -8.45187,-124.645
 L -8.44995,-124.645 L -8.44995,-124.686 L -8.43474,-124.758 L -8.40495,-124.825 L -8.36191,-124.884 L -8.3075,-124.933
 L -8.24408,-124.97 L -8.17444,-124.992 L -8.1066,-124.999 L -8.1066,-124.998 L -8.06499,-124.998 L -7.99336,-124.983
 L -7.92647,-124.953 L -7.86723,-124.91 L -7.81824,-124.856 L -7.78162,-124.792 L -7.75899,-124.723 L -7.75134,-124.65
 L -7.75186,-124.645 L -7.75134,-124.645 L -7.75134,-44.0219 L -7.75325,-44.0219 L -7.75325,-43.9803 L -7.76848,-43.9087
 L -7.79826,-43.8418 L -7.84131,-43.7826 L -7.89572,-43.7336 L -7.95914,-43.6969 L -8.02878,-43.6743 L -8.0966,-43.6672
 z
M -18.8988,-43.6686 L -18.9404,-43.6686 L -19.012,-43.6838 L -19.0789,-43.7136 L -19.1381,-43.7566 L -19.1871,-43.8111
 L -19.2238,-43.8745 L -19.2464,-43.9441 L -19.254,-44.0169 L -19.2535,-44.0219 L -19.254,-44.0219 L -19.254,-124.645
 L -19.2521,-124.645 L -19.2521,-124.686 L -19.2369,-124.758 L -19.2071,-124.825 L -19.1641,-124.884 L -19.1096,-124.933
 L -19.0462,-124.97 L -18.9766,-124.992 L -18.9088,-124.999 L -18.9088,-124.998 L -18.8672,-124.998 L -18.7955,-124.983
 L -18.7286,-124.953 L -18.6694,-124.91 L -18.6204,-124.856 L -18.5838,-124.792 L -18.5612,-124.723 L -18.5535,-124.65
 L -18.554,-124.645 L -18.5535,-124.645 L -18.5535,-44.0219 L -18.5554,-44.0219 L -18.5554,-43.9803 L -18.5706,-43.9087
 L -18.6004,-43.8418 L -18.6435,-43.7826 L -18.6979,-43.7336 L -18.7613,-43.6969 L -18.8309,-43.6743 L -18.8988,-43.6672
 z
M 13.5077,-43.6686 L 13.4661,-43.6686 L 13.3945,-43.6838 L 13.3276,-43.7136 L 13.2683,-43.7566 L 13.2193,-43.8111
 L 13.1827,-43.8745 L 13.1601,-43.9441 L 13.1524,-44.0169 L 13.1529,-44.0219 L 13.1524,-44.0219 L 13.1524,-124.645
 L 13.1543,-124.645 L 13.1543,-124.686 L 13.1696,-124.758 L 13.1993,-124.825 L 13.2424,-124.884 L 13.2968,-124.933
 L 13.3602,-124.97 L 13.4299,-124.992 L 13.4977,-124.999 L 13.4977,-124.998 L 13.5393,-124.998 L 13.6109,-124.983
 L 13.6778,-124.953 L 13.7371,-124.91 L 13.7861,-124.856 L 13.8227,-124.792 L 13.8453,-124.723 L 13.853,-124.65
 L 13.8524,-124.645 L 13.853,-124.645 L 13.853,-44.0219 L 13.851,-44.0219 L 13.851,-43.9803 L 13.8358,-43.9087
 L 13.806,-43.8418 L 13.763,-43.7826 L 13.7086,-43.7336 L 13.6452,-43.6969 L 13.5755,-43.6743 L 13.5077,-43.6672
 z
M 8.1066,-43.6686 L 8.06499,-43.6686 L 7.99336,-43.6838 L 7.92647,-43.7136 L 7.86723,-43.7566 L 7.81824,-43.8111
 L 7.78162,-43.8745 L 7.75899,-43.9441 L 7.75134,-44.0169 L 7.75186,-44.0219 L 7.75134,-44.0219 L 7.75134,-124.645
 L 7.75325,-124.645 L 7.75325,-124.686 L 7.76848,-124.758 L 7.79826,-124.825 L 7.84131,-124.884 L 7.89572,-124.933
 L 7.95914,-124.97 L 8.02878,-124.992 L 8.0966,-124.999 L 8.0966,-124.998 L 8.13823,-124.998 L 8.20984,-124.983
 L 8.27675,-124.953 L 8.33598,-124.91 L 8.38498,-124.856 L 8.42159,-124.792 L 8.44423,-124.723 L 8.45187,-124.65
 L 8.45135,-124.645 L 8.45187,-124.645 L 8.45187,-44.0219 L 8.44995,-44.0219 L 8.44995,-43.9803 L 8.43474,-43.9087
 L 8.40495,-43.8418 L 8.36191,-43.7826 L 8.3075,-43.7336 L 8.24408,-43.6969 L 8.17444,-43.6743 L 8.1066,-43.6672
 z
M 2.70554,-43.6686 L 2.66391,-43.6686 L 2.59229,-43.6838 L 2.52539,-43.7136 L 2.46616,-43.7566 L 2.41716,-43.8111
 L 2.38054,-43.8745 L 2.35791,-43.9441 L 2.35027,-44.0169 L 2.3508,-44.0219 L 2.35027,-44.0219 L 2.35027,-124.645
 L 2.35219,-124.645 L 2.35219,-124.686 L 2.3674,-124.758 L 2.39719,-124.825 L 2.44023,-124.884 L 2.49466,-124.933
 L 2.55806,-124.97 L 2.6277,-124.992 L 2.69553,-124.999 L 2.69553,-124.998 L 2.73714,-124.998 L 2.80878,-124.983
 L 2.87566,-124.953 L 2.93491,-124.91 L 2.9839,-124.856 L 3.02051,-124.792 L 3.04314,-124.723 L 3.0508,-124.65
 L 3.05028,-124.645 L 3.0508,-124.645 L 3.0508,-44.0219 L 3.04889,-44.0219 L 3.04889,-43.9803 L 3.03365,-43.9087
 L 3.00388,-43.8418 L 2.96083,-43.7826 L 2.90642,-43.7336 L 2.843,-43.6969 L 2.77335,-43.6743 L 2.70554,-43.6672
 z
M -13.4977,-43.6686 L -13.5393,-43.6686 L -13.6109,-43.6838 L -13.6778,-43.7136 L -13.7371,-43.7566 L -13.7861,-43.8111
 L -13.8227,-43.8745 L -13.8453,-43.9441 L -13.853,-44.0169 L -13.8524,-44.0219 L -13.853,-44.0219 L -13.853,-124.645
 L -13.851,-124.645 L -13.851,-124.686 L -13.8358,-124.758 L -13.806,-124.825 L -13.763,-124.884 L -13.7086,-124.933
 L -13.6452,-124.97 L -13.5755,-124.992 L -13.5077,-124.999 L -13.5077,-124.998 L -13.4661,-124.998 L -13.3945,-124.983
 L -13.3276,-124.953 L -13.2683,-124.91 L -13.2193,-124.856 L -13.1827,-124.792 L -13.1601,-124.723 L -13.1524,-124.65
 L -13.1529,-124.645 L -13.1524,-124.645 L -13.1524,-44.0219 L -13.1543,-44.0219 L -13.1543,-43.9803 L -13.1696,-43.9087
 L -13.1993,-43.8418 L -13.2424,-43.7826 L -13.2968,-43.7336 L -13.3602,-43.6969 L -13.4299,-43.6743 L -13.4977,-43.6672
 z
M 18.9088,-43.6686 L 18.8672,-43.6686 L 18.7955,-43.6838 L 18.7286,-43.7136 L 18.6694,-43.7566 L 18.6204,-43.8111
 L 18.5838,-43.8745 L 18.5612,-43.9441 L 18.5535,-44.0169 L 18.554,-44.0219 L 18.5535,-44.0219 L 18.5535,-124.645
 L 18.5554,-124.645 L 18.5554,-124.686 L 18.5706,-124.758 L 18.6004,-124.825 L 18.6435,-124.884 L 18.6979,-124.933
 L 18.7613,-124.97 L 18.8309,-124.992 L 18.8988,-124.999 L 18.8988,-124.998 L 18.9404,-124.998 L 19.012,-124.983
 L 19.0789,-124.953 L 19.1381,-124.91 L 19.1871,-124.856 L 19.2238,-124.792 L 19.2464,-124.723 L 19.254,-124.65
 L 19.2535,-124.645 L 19.254,-124.645 L 19.254,-44.0219 L 19.2521,-44.0219 L 19.2521,-43.9803 L 19.2369,-43.9087
 L 19.2071,-43.8418 L 19.1641,-43.7826 L 19.1096,-43.7336 L 19.0462,-43.6969 L 18.9766,-43.6743 L 18.9088,-43.6672
 z
M 16.2082,-3.00191 L 16.1666,-3.00191 L 16.095,-3.01714 L 16.0281,-3.04692 L 15.9689,-3.08997 L 15.9199,-3.14438
 L 15.8832,-3.20779 L 15.8606,-3.27744 L 15.853,-3.35027 L 15.8535,-3.35526 L 15.853,-3.35526 L 15.853,-83.9781
 L 15.8549,-83.9781 L 15.8549,-84.0197 L 15.8701,-84.0913 L 15.8999,-84.1582 L 15.9429,-84.2174 L 15.9973,-84.2664
 L 16.0608,-84.303 L 16.1304,-84.3257 L 16.1982,-84.3328 L 16.1982,-84.3314 L 16.2398,-84.3314 L 16.3115,-84.3162
 L 16.3784,-84.2864 L 16.4376,-84.2434 L 16.4866,-84.1889 L 16.5232,-84.1255 L 16.5458,-84.0559 L 16.5535,-83.9831
 L 16.553,-83.9781 L 16.5535,-83.9781 L 16.5535,-3.35526 L 16.5516,-3.35526 L 16.5516,-3.31366 L 16.5364,-3.24202
 L 16.5066,-3.17513 L 16.4635,-3.11588 L 16.4091,-3.06689 L 16.3457,-3.03027 L 16.2761,-3.00764 L 16.2082,-3.00052
 z
M -10.7972,-3.00191 L -10.8388,-3.00191 L -10.9104,-3.01714 L -10.9773,-3.04692 L -11.0365,-3.08997 L -11.0855,-3.14438
 L -11.1221,-3.20779 L -11.1448,-3.27744 L -11.1524,-3.35027 L -11.1519,-3.35526 L -11.1524,-3.35526 L -11.1524,-83.9781
 L -11.1505,-83.9781 L -11.1505,-84.0197 L -11.1353,-84.0913 L -11.1055,-84.1582 L -11.0625,-84.2174 L -11.008,-84.2664
 L -10.9446,-84.303 L -10.875,-84.3257 L -10.8072,-84.3328 L -10.8072,-84.3314 L -10.7655,-84.3314 L -10.6939,-84.3162
 L -10.627,-84.2864 L -10.5678,-84.2434 L -10.5188,-84.1889 L -10.4822,-84.1255 L -10.4595,-84.0559 L -10.4519,-83.9831
 L -10.4524,-83.9781 L -10.4519,-83.9781 L -10.4519,-3.35526 L -10.4538,-3.35526 L -10.4538,-3.31366 L -10.469,-3.24202
 L -10.4988,-3.17513 L -10.5419,-3.11588 L -10.5963,-3.06689 L -10.6597,-3.03027 L -10.7293,-3.00764 L -10.7972,-3.00052
 z
M -16.1982,-3.00191 L -16.2398,-3.00191 L -16.3115,-3.01714 L -16.3784,-3.04692 L -16.4376,-3.08997 L -16.4866,-3.14438
 L -16.5232,-3.20779 L -16.5458,-3.27744 L -16.5535,-3.35027 L -16.553,-3.35526 L -16.5535,-3.35526 L -16.5535,-83.9781
 L -16.5516,-83.9781 L -16.5516,-84.0197 L -16.5364,-84.0913 L -16.5066,-84.1582 L -16.4635,-84.2174 L -16.4091,-84.2664
 L -16.3457,-84.303 L -16.2761,-84.3257 L -16.2082,-84.3328 L -16.2082,-84.3314 L -16.1666,-84.3314 L -16.095,-84.3162
 L -16.0281,-84.2864 L -15.9689,-84.2434 L -15.9199,-84.1889 L -15.8832,-84.1255 L -15.8606,-84.0559 L -15.853,-83.9831
 L -15.8535,-83.9781 L -15.853,-83.9781 L -15.853,-3.35526 L -15.8549,-3.35526 L -15.8549,-3.31366 L -15.8701,-3.24202
 L -15.8999,-3.17513 L -15.9429,-3.11588 L -15.9973,-3.06689 L -16.0608,-3.03027 L -16.1304,-3.00764 L -16.1982,-3.00052
 z
M 10.8072,-3.00191 L 10.7655,-3.00191 L 10.6939,-3.01714 L 10.627,-3.04692 L 10.5678,-3.08997 L 10.5188,-3.14438
 L 10.4822,-3.20779 L 10.4595,-3.27744 L 10.4519,-3.35027 L 10.4524,-3.35526 L 10.4519,-3.35526 L 10.4519,-83.9781
 L 10.4538,-83.9781 L 10.4538,-84.0197 L 10.469,-84.0913 L 10.4988,-84.1582 L 10.5419,-84.2174 L 10.5963,-84.2664
 L 10.6597,-84.303 L 10.7293,-84.3257 L 10.7972,-84.3328 L 10.7972,-84.3314 L 10.8388,-84.3314 L 10.9104,-84.3162
 L 10.9773,-84.2864 L 11.0365,-84.2434 L 11.0855,-84.1889 L 11.1221,-84.1255 L 11.1448,-84.0559 L 11.1524,-83.9831
 L 11.1519,-83.9781 L 11.1524,-83.9781 L 11.1524,-3.35526 L 11.1505,-3.35526 L 11.1505,-3.31366 L 11.1353,-3.24202
 L 11.1055,-3.17513 L 11.0625,-3.11588 L 11.008,-3.06689 L 10.9446,-3.03027 L 10.875,-3.00764 L 10.8072,-3.00052
 z
M 5.40607,-3.00191 L 5.36446,-3.00191 L 5.29283,-3.01714 L 5.22594,-3.04692 L 5.16669,-3.08997 L 5.11769,-3.14438
 L 5.08109,-3.20779 L 5.05846,-3.27744 L 5.0508,-3.35027 L 5.05132,-3.35526 L 5.0508,-3.35526 L 5.0508,-83.9781
 L 5.05272,-83.9781 L 5.05272,-84.0197 L 5.06795,-84.0913 L 5.09772,-84.1582 L 5.14078,-84.2174 L 5.19518,-84.2664
 L 5.25861,-84.303 L 5.32825,-84.3257 L 5.39607,-84.3328 L 5.39607,-84.3314 L 5.43768,-84.3314 L 5.50931,-84.3162
 L 5.5762,-84.2864 L 5.63544,-84.2434 L 5.68445,-84.1889 L 5.72105,-84.1255 L 5.74368,-84.0559 L 5.75133,-83.9831
 L 5.75081,-83.9781 L 5.75133,-83.9781 L 5.75133,-3.35526 L 5.74942,-3.35526 L 5.74942,-3.31366 L 5.73419,-3.24202
 L 5.70441,-3.17513 L 5.66138,-3.11588 L 5.60695,-3.06689 L 5.54353,-3.03027 L 5.47389,-3.00764 L 5.40607,-3.00052
 z
M -5.39607,-3.00191 L -5.43768,-3.00191 L -5.50931,-3.01714 L -5.5762,-3.04692 L -5.63544,-3.08997 L -5.68445,-3.14438
 L -5.72105,-3.20779 L -5.74368,-3.27744 L -5.75133,-3.35027 L -5.75081,-3.35526 L -5.75134,-3.35526 L -5.75134,-83.9781
 L -5.74942,-83.9781 L -5.74942,-84.0197 L -5.73419,-84.0913 L -5.70441,-84.1582 L -5.66138,-84.2174 L -5.60695,-84.2664
 L -5.54353,-84.303 L -5.47389,-84.3257 L -5.40607,-84.3328 L -5.40607,-84.3314 L -5.36446,-84.3314 L -5.29283,-84.3162
 L -5.22594,-84.2864 L -5.16669,-84.2434 L -5.11769,-84.1889 L -5.08109,-84.1255 L -5.05846,-84.0559 L -5.0508,-83.9831
 L -5.05132,-83.9781 L -5.0508,-83.9781 L -5.0508,-3.35526 L -5.05272,-3.35526 L -5.05272,-3.31366 L -5.06795,-3.24202
 L -5.09772,-3.17513 L -5.14078,-3.11588 L -5.19518,-3.06689 L -5.25861,-3.03027 L -5.32825,-3.00764 L -5.39607,-3.00052
 z
M 0.00498962,-3.00191 L -0.0366058,-3.00191 L -0.108231,-3.01714 L -0.175125,-3.04692 L -0.234375,-3.08997 L -0.283371,-3.14438
 L -0.319977,-3.20779 L -0.342606,-3.27744 L -0.350266,-3.35027 L -0.349731,-3.35526 L -0.350266,-3.35526 L -0.350266,-83.9781
 L -0.348343,-83.9781 L -0.348343,-84.0197 L -0.333115,-84.0913 L -0.303329,-84.1582 L -0.2603,-84.2174 L -0.205872,-84.2664
 L -0.142456,-84.303 L -0.0728149,-84.3257 L -0.00498962,-84.3328 L -0.00498962,-84.3314 L 0.0366058,-84.3314 L 0.108231,-84.3162
 L 0.175125,-84.2864 L 0.234375,-84.2434 L 0.283371,-84.1889 L 0.319977,-84.1255 L 0.342606,-84.0559 L 0.350266,-83.9831
 L 0.349731,-83.9781 L 0.350266,-83.9781 L 0.350266,-3.35526 L 0.348343,-3.35526 L 0.348343,-3.31366 L 0.333115,-3.24202
 L 0.303329,-3.17513 L 0.2603,-3.11588 L 0.205872,-3.06689 L 0.142456,-3.03027 L 0.0728149,-3.00764 L 0.00498962,-3.00052
 z
M 8.1066,40.6647 L 8.06499,40.6647 L 7.99336,40.6495 L 7.92647,40.6197 L 7.86723,40.5767 L 7.81824,40.5223
 L 7.78162,40.4589 L 7.75899,40.3892 L 7.75134,40.3164 L 7.75186,40.3114 L 7.75134,40.3114 L 7.75134,-40.3114
 L 7.75325,-40.3114 L 7.75325,-40.353 L 7.76848,-40.4246 L 7.79826,-40.4915 L 7.84131,-40.5508 L 7.89572,-40.5998
 L 7.95914,-40.6364 L 8.02878,-40.659 L 8.0966,-40.6661 L 8.0966,-40.6647 L 8.13823,-40.6647 L 8.20984,-40.6495
 L 8.27675,-40.6197 L 8.33598,-40.5767 L 8.38498,-40.5223 L 8.42159,-40.4589 L 8.44423,-40.3892 L 8.45187,-40.3164
 L 8.45135,-40.3114 L 8.45187,-40.3114 L 8.45187,40.3114 L 8.44995,40.3114 L 8.44995,40.353 L 8.43474,40.4246
 L 8.40495,40.4915 L 8.36191,40.5508 L 8.3075,40.5998 L 8.24408,40.6364 L 8.17444,40.659 L 8.1066,40.6661
 z
M -18.8988,40.6647 L -18.9404,40.6647 L -19.012,40.6495 L -19.0789,40.6197 L -19.1381,40.5767 L -19.1871,40.5223
 L -19.2238,40.4589 L -19.2464,40.3892 L -19.254,40.3164 L -19.2535,40.3114 L -19.254,40.3114 L -19.254,-40.3114
 L -19.2521,-40.3114 L -19.2521,-40.353 L -19.2369,-40.4246 L -19.2071,-40.4915 L -19.1641,-40.5508 L -19.1096,-40.5998
 L -19.0462,-40.6364 L -18.9766,-40.659 L -18.9088,-40.6661 L -18.9088,-40.6647 L -18.8672,-40.6647 L -18.7955,-40.6495
 L -18.7286,-40.6197 L -18.6694,-40.5767 L -18.6204,-40.5223 L -18.5838,-40.4589 L -18.5612,-40.3892 L -18.5535,-40.3164
 L -18.554,-40.3114 L -18.5535,-40.3114 L -18.5535,40.3114 L -18.5554,40.3114 L -18.5554,40.353 L -18.5706,40.4246
 L -18.6004,40.4915 L -18.6435,40.5508 L -18.6979,40.5998 L -18.7613,40.6364 L -18.8309,40.659 L -18.8988,40.6661
 z
M -2.69553,40.6647 L -2.73714,40.6647 L -2.80878,40.6495 L -2.87566,40.6197 L -2.93491,40.5767 L -2.9839,40.5223
 L -3.02051,40.4589 L -3.04314,40.3892 L -3.0508,40.3164 L -3.05028,40.3114 L -3.0508,40.3114 L -3.0508,-40.3114
 L -3.04889,-40.3114 L -3.04889,-40.353 L -3.03365,-40.4246 L -3.00388,-40.4915 L -2.96083,-40.5508 L -2.90642,-40.5998
 L -2.843,-40.6364 L -2.77335,-40.659 L -2.70554,-40.6661 L -2.70554,-40.6647 L -2.66391,-40.6647 L -2.59229,-40.6495
 L -2.52539,-40.6197 L -2.46616,-40.5767 L -2.41716,-40.5223 L -2.38054,-40.4589 L -2.35791,-40.3892 L -2.35027,-40.3164
 L -2.3508,-40.3114 L -2.35027,-40.3114 L -2.35027,40.3114 L -2.35219,40.3114 L -2.35219,40.353 L -2.3674,40.4246
 L -2.39719,40.4915 L -2.44023,40.5508 L -2.49466,40.5998 L -2.55806,40.6364 L -2.6277,40.659 L -2.69553,40.6661
 z
M -13.4977,40.6647 L -13.5393,40.6647 L -13.6109,40.6495 L -13.6778,40.6197 L -13.7371,40.5767 L -13.7861,40.5223
 L -13.8227,40.4589 L -13.8453,40.3892 L -13.853,40.3164 L -13.8524,40.3114 L -13.853,40.3114 L -13.853,-40.3114
 L -13.851,-40.3114 L -13.851,-40.353 L -13.8358,-40.4246 L -13.806,-40.4915 L -13.763,-40.5508 L -13.7086,-40.5998
 L -13.6452,-40.6364 L -13.5755,-40.659 L -13.5077,-40.6661 L -13.5077,-40.6647 L -13.4661,-40.6647 L -13.3945,-40.6495
 L -13.3276,-40.6197 L -13.2683,-40.5767 L -13.2193,-40.5223 L -13.1827,-40.4589 L -13.1601,-40.3892 L -13.1524,-40.3164
 L -13.1529,-40.3114 L -13.1524,-40.3114 L -13.1524,40.3114 L -13.1543,40.3114 L -13.1543,40.353 L -13.1696,40.4246
 L -13.1993,40.4915 L -13.2424,40.5508 L -13.2968,40.5998 L -13.3602,40.6364 L -13.4299,40.659 L -13.4977,40.6661
 z
M -8.0966,40.6647 L -8.13823,40.6647 L -8.20984,40.6495 L -8.27675,40.6197 L -8.33598,40.5767 L -8.38498,40.5223
 L -8.42159,40.4589 L -8.44423,40.3892 L -8.45187,40.3164 L -8.45135,40.3114 L -8.45187,40.3114 L -8.45187,-40.3114
 L -8.44995,-40.3114 L -8.44995,-40.353 L -8.43474,-40.4246 L -8.40495,-40.4915 L -8.36191,-40.5508 L -8.3075,-40.5998
 L -8.24408,-40.6364 L -8.17444,-40.659 L -8.1066,-40.6661 L -8.1066,-40.6647 L -8.06499,-40.6647 L -7.99336,-40.6495
 L -7.92647,-40.6197 L -7.86723,-40.5767 L -7.81824,-40.5223 L -7.78162,-40.4589 L -7.75899,-40.3892 L -7.75134,-40.3164
 L -7.75186,-40.3114 L -7.75134,-40.3114 L -7.75134,40.3114 L -7.75325,40.3114 L -7.75325,40.353 L -7.76848,40.4246
 L -7.79826,40.4915 L -7.84131,40.5508 L -7.89572,40.5998 L -7.95914,40.6364 L -8.02878,40.659 L -8.0966,40.6661
 z
M 18.9088,40.6647 L 18.8672,40.6647 L 18.7955,40.6495 L 18.7286,40.6197 L 18.6694,40.5767 L 18.6204,40.5223
 L 18.5838,40.4589 L 18.5612,40.3892 L 18.5535,40.3164 L 18.554,40.3114 L 18.5535,40.3114 L 18.5535,-40.3114
 L 18.5554,-40.3114 L 18.5554,-40.353 L 18.5706,-40.4246 L 18.6004,-40.4915 L 18.6435,-40.5508 L 18.6979,-40.5998
 L 18.7613,-40.6364 L 18.8309,-40.659 L 18.8988,-40.6661 L 18.8988,-40.6647 L 18.9404,-40.6647 L 19.012,-40.6495
 L 19.0789,-40.6197 L 19.1381,-40.5767 L 19.1871,-40.5223 L 19.2238,-40.4589 L 19.2464,-40.3892 L 19.254,-40.3164
 L 19.2535,-40.3114 L 19.254,-40.3114 L 19.254,40.3114 L 19.2521,40.3114 L 19.2521,40.353 L 19.2369,40.4246
 L 19.2071,40.4915 L 19.1641,40.5508 L 19.1096,40.5998 L 19.0462,40.6364 L 18.9766,40.659 L 18.9088,40.6661
 z
M 2.70554,40.6647 L 2.66391,40.6647 L 2.59229,40.6495 L 2.52539,40.6197 L 2.46616,40.5767 L 2.41716,40.5223
 L 2.38054,40.4589 L 2.35791,40.3892 L 2.35027,40.3164 L 2.3508,40.3114 L 2.35027,40.3114 L 2.35027,-40.3114
 L 2.35219,-40.3114 L 2.35219,-40.353 L 2.3674,-40.4246 L 2.39719,-40.4915 L 2.44023,-40.5508 L 2.49466,-40.5998
 L 2.55806,-40.6364 L 2.6277,-40.659 L 2.69553,-40.6661 L 2.69553,-40.6647 L 2.73714,-40.6647 L 2.80878,-40.6495
 L 2.87566,-40.6197 L 2.93491,-40.5767 L 2.9839,-40.5223 L 3.02051,-40.4589 L 3.04314,-40.3892 L 3.0508,-40.3164
 L 3.05028,-40.3114 L 3.0508,-40.3114 L 3.0508,40.3114 L 3.04889,40.3114 L 3.04889,40.353 L 3.03365,40.4246
 L 3.00388,40.4915 L 2.96083,40.5508 L 2.90642,40.5998 L 2.843,40.6364 L 2.77335,40.659 L 2.70554,40.6661
 z
M 13.5077,40.6647 L 13.4661,40.6647 L 13.3945,40.6495 L 13.3276,40.6197 L 13.2683,40.5767 L 13.2193,40.5223
 L 13.1827,40.4589 L 13.1601,40.3892 L 13.1524,40.3164 L 13.1529,40.3114 L 13.1524,40.3114 L 13.1524,-40.3114
 L 13.1543,-40.3114 L 13.1543,-40.353 L 13.1696,-40.4246 L 13.1993,-40.4915 L 13.2424,-40.5508 L 13.2968,-40.5998
 L 13.3602,-40.6364 L 13.4299,-40.659 L 13.4977,-40.6661 L 13.4977,-40.6647 L 13.5393,-40.6647 L 13.6109,-40.6495
 L 13.6778,-40.6197 L 13.7371,-40.5767 L 13.7861,-40.5223 L 13.8227,-40.4589 L 13.8453,-40.3892 L 13.853,-40.3164
 L 13.8524,-40.3114 L 13.853,-40.3114 L 13.853,40.3114 L 13.851,40.3114 L 13.851,40.353 L 13.8358,40.4246
 L 13.806,40.4915 L 13.763,40.5508 L 13.7086,40.5998 L 13.6452,40.6364 L 13.5755,40.659 L 13.5077,40.6661
 z
M -10.7972,81.3314 L -10.8388,81.3314 L -10.9104,81.3162 L -10.9773,81.2864 L -11.0365,81.2434 L -11.0855,81.1889
 L -11.1221,81.1255 L -11.1448,81.0559 L -11.1524,80.9831 L -11.1519,80.9781 L -11.1524,80.9781 L -11.1524,0.355255
 L -11.1505,0.355255 L -11.1505,0.313644 L -11.1353,0.24202 L -11.1055,0.175125 L -11.0625,0.115891 L -11.008,0.0668945
 L -10.9446,0.0302734 L -10.875,0.00764465 L -10.8072,0.000518799 L -10.8072,0.00190735 L -10.7655,0.00190735 L -10.6939,0.0171356
 L -10.627,0.0469208 L -10.5678,0.0899658 L -10.5188,0.144379 L -10.4822,0.207794 L -10.4595,0.277435 L -10.4519,0.350266
 L -10.4524,0.355255 L -10.4519,0.355255 L -10.4519,80.9781 L -10.4538,80.9781 L -10.4538,81.0197 L -10.469,81.0913
 L -10.4988,81.1582 L -10.5419,81.2174 L -10.5963,81.2664 L -10.6597,81.303 L -10.7293,81.3257 L -10.7972,81.3328
 z
M 5.40607,81.3314 L 5.36446,81.3314 L 5.29283,81.3162 L 5.22594,81.2864 L 5.16669,81.2434 L 5.11769,81.1889
 L 5.08109,81.1255 L 5.05846,81.0559 L 5.0508,80.9831 L 5.05132,80.9781 L 5.0508,80.9781 L 5.0508,0.355255
 L 5.05272,0.355255 L 5.05272,0.313644 L 5.06795,0.24202 L 5.09772,0.175125 L 5.14078,0.115891 L 5.19518,0.0668945
 L 5.25861,0.0302734 L 5.32825,0.00764465 L 5.39607,0.000518799 L 5.39607,0.00190735 L 5.43768,0.00190735 L 5.50931,0.0171356
 L 5.5762,0.0469208 L 5.63544,0.0899658 L 5.68445,0.144379 L 5.72105,0.207794 L 5.74368,0.277435 L 5.75133,0.350266
 L 5.75081,0.355255 L 5.75133,0.355255 L 5.75133,80.9781 L 5.74942,80.9781 L 5.74942,81.0197 L 5.73419,81.0913
 L 5.70441,81.1582 L 5.66138,81.2174 L 5.60695,81.2664 L 5.54353,81.303 L 5.47389,81.3257 L 5.40607,81.3328
 z
M -5.39607,81.3314 L -5.43768,81.3314 L -5.50931,81.3162 L -5.5762,81.2864 L -5.63544,81.2434 L -5.68445,81.1889
 L -5.72105,81.1255 L -5.74368,81.0559 L -5.75133,80.9831 L -5.75081,80.9781 L -5.75134,80.9781 L -5.75134,0.355255
 L -5.74942,0.355255 L -5.74942,0.313644 L -5.73419,0.24202 L -5.70441,0.175125 L -5.66138,0.115891 L -5.60695,0.0668945
 L -5.54353,0.0302734 L -5.47389,0.00764465 L -5.40607,0.000518799 L -5.40607,0.00190735 L -5.36446,0.00190735 L -5.29283,0.0171356
 L -5.22594,0.0469208 L -5.16669,0.0899658 L -5.11769,0.144379 L -5.08109,0.207794 L -5.05846,0.277435 L -5.0508,0.350266
 L -5.05132,0.355255 L -5.0508,0.355255 L -5.0508,80.9781 L -5.05272,80.9781 L -5.05272,81.0197 L -5.06795,81.0913
 L -5.09772,81.1582 L -5.14078,81.2174 L -5.19518,81.2664 L -5.25861,81.303 L -5.32825,81.3257 L -5.39607,81.3328
 z
M 0.00498962,81.3314 L -0.0366058,81.3314 L -0.108231,81.3162 L -0.175125,81.2864 L -0.234375,81.2434 L -0.283371,81.1889
 L -0.319977,81.1255 L -0.342606,81.0559 L -0.350266,80.9831 L -0.349731,80.9781 L -0.350266,80.9781 L -0.350266,0.355255
 L -0.348343,0.355255 L -0.348343,0.313644 L -0.333115,0.24202 L -0.303329,0.175125 L -0.2603,0.115891 L -0.205872,0.0668945
 L -0.142456,0.0302734 L -0.0728149,0.00764465 L -0.00498962,0.000518799 L -0.00498962,0.00190735 L 0.0366058,0.00190735 L 0.108231,0.0171356
 L 0.175125,0.0469208 L 0.234375,0.0899658 L 0.283371,0.144379 L 0.319977,0.207794 L 0.342606,0.277435 L 0.350266,0.350266
 L 0.349731,0.355255 L 0.350266,0.355255 L 0.350266,80.9781 L 0.348343,80.9781 L 0.348343,81.0197 L 0.333115,81.0913
 L 0.303329,81.1582 L 0.2603,81.2174 L 0.205872,81.2664 L 0.142456,81.303 L 0.0728149,81.3257 L 0.00498962,81.3328
 z
M 16.2082,81.3314 L 16.1666,81.3314 L 16.095,81.3162 L 16.0281,81.2864 L 15.9689,81.2434 L 15.9199,81.1889
 L 15.8832,81.1255 L 15.8606,81.0559 L 15.853,80.9831 L 15.8535,80.9781 L 15.853,80.9781 L 15.853,0.355255
 L 15.8549,0.355255 L 15.8549,0.313644 L 15.8701,0.24202 L 15.8999,0.175125 L 15.9429,0.115891 L 15.9973,0.0668945
 L 16.0608,0.0302734 L 16.1304,0.00764465 L 16.1982,0.000518799 L 16.1982,0.00190735 L 16.2398,0.00190735 L 16.3115,0.0171356
 L 16.3784,0.0469208 L 16.4376,0.0899658 L 16.4866,0.144379 L 16.5232,0.207794 L 16.5458,0.277435 L 16.5535,0.350266
 L 16.553,0.355255 L 16.5535,0.355255 L 16.5535,80.9781 L 16.5516,80.9781 L 16.5516,81.0197 L 16.5364,81.0913
 L 16.5066,81.1582 L 16.4635,81.2174 L 16.4091,81.2664 L 16.3457,81.303 L 16.2761,81.3257 L 16.2082,81.3328
 z
M 10.8072,81.3314 L 10.7655,81.3314 L 10.6939,81.3162 L 10.627,81.2864 L 10.5678,81.2434 L 10.5188,81.1889
 L 10.4822,81.1255 L 10.4595,81.0559 L 10.4519,80.9831 L 10.4524,80.9781 L 10.4519,80.9781 L 10.4519,0.355255
 L 10.4538,0.355255 L 10.4538,0.313644 L 10.469,0.24202 L 10.4988,0.175125 L 10.5419,0.115891 L 10.5963,0.0668945
 L 10.6597,0.0302734 L 10.7293,0.00764465 L 10.7972,0.000518799 L 10.7972,0.00190735 L 10.8388,0.00190735 L 10.9104,0.0171356
 L 10.9773,0.0469208 L 11.0365,0.0899658 L 11.0855,0.144379 L 11.1221,0.207794 L 11.1448,0.277435 L 11.1524,0.350266
 L 11.1519,0.355255 L 11.1524,0.355255 L 11.1524,80.9781 L 11.1505,80.9781 L 11.1505,81.0197 L 11.1353,81.0913
 L 11.1055,81.1582 L 11.0625,81.2174 L 11.008,81.2664 L 10.9446,81.303 L 10.875,81.3257 L 10.8072,81.3328
 z
M -16.1982,81.3314 L -16.2398,81.3314 L -16.3115,81.3162 L -16.3784,81.2864 L -16.4376,81.2434 L -16.4866,81.1889
 L -16.5232,81.1255 L -16.5458,81.0559 L -16.5535,80.9831 L -16.553,80.9781 L -16.5535,80.9781 L -16.5535,0.355255
 L -16.5516,0.355255 L -16.5516,0.313644 L -16.5364,0.24202 L -16.5066,0.175125 L -16.4635,0.115891 L -16.4091,0.0668945
 L -16.3457,0.0302734 L -16.2761,0.00764465 L -16.2082,0.000518799 L -16.2082,0.00190735 L -16.1666,0.00190735 L -16.095,0.0171356
 L -16.0281,0.0469208 L -15.9689,0.0899658 L -15.9199,0.144379 L -15.8832,0.207794 L -15.8606,0.277435 L -15.853,0.350266
 L -15.8535,0.355255 L -15.853,0.355255 L -15.853,80.9781 L -15.8549,80.9781 L -15.8549,81.0197 L -15.8701,81.0913
 L -15.8999,81.1582 L -15.9429,81.2174 L -15.9973,81.2664 L -16.0608,81.303 L -16.1304,81.3257 L -16.1982,81.3328
 z
M 2.70554,124.998 L 2.66391,124.998 L 2.59229,124.983 L 2.52539,124.953 L 2.46616,124.91 L 2.41716,124.856
 L 2.38054,124.792 L 2.35791,124.723 L 2.35027,124.65 L 2.3508,124.645 L 2.35027,124.645 L 2.35027,44.0219
 L 2.35219,44.0219 L 2.35219,43.9803 L 2.3674,43.9087 L 2.39719,43.8418 L 2.44023,43.7826 L 2.49466,43.7336
 L 2.55806,43.6969 L 2.6277,43.6743 L 2.69553,43.6672 L 2.69553,43.6686 L 2.73714,43.6686 L 2.80878,43.6838
 L 2.87566,43.7136 L 2.93491,43.7566 L 2.9839,43.8111 L 3.02051,43.8745 L 3.04314,43.9441 L 3.0508,44.0169
 L 3.05028,44.0219 L 3.0508,44.0219 L 3.0508,124.645 L 3.04889,124.645 L 3.04889,124.686 L 3.03365,124.758
 L 3.00388,124.825 L 2.96083,124.884 L 2.90642,124.933 L 2.843,124.97 L 2.77335,124.992 L 2.70554,124.999
 z
M 18.9088,124.998 L 18.8672,124.998 L 18.7955,124.983 L 18.7286,124.953 L 18.6694,124.91 L 18.6204,124.856
 L 18.5838,124.792 L 18.5612,124.723 L 18.5535,124.65 L 18.554,124.645 L 18.5535,124.645 L 18.5535,44.0219
 L 18.5554,44.0219 L 18.5554,43.9803 L 18.5706,43.9087 L 18.6004,43.8418 L 18.6435,43.7826 L 18.6979,43.7336
 L 18.7613,43.6969 L 18.8309,43.6743 L 18.8988,43.6672 L 18.8988,43.6686 L 18.9404,43.6686 L 19.012,43.6838
 L 19.0789,43.7136 L 19.1381,43.7566 L 19.1871,43.8111 L 19.2238,43.8745 L 19.2464,43.9441 L 19.254,44.0169
 L 19.2535,44.0219 L 19.254,44.0219 L 19.254,124.645 L 19.2521,124.645 L 19.2521,124.686 L 19.2369,124.758
 L 19.2071,124.825 L 19.1641,124.884 L 19.1096,124.933 L 19.0462,124.97 L 18.9766,124.992 L 18.9088,124.999
 z
M -13.4977,124.998 L -13.5393,124.998 L -13.6109,124.983 L -13.6778,124.953 L -13.7371,124.91 L -13.7861,124.856
 L -13.8227,124.792 L -13.8453,124.723 L -13.853,124.65 L -13.8524,124.645 L -13.853,124.645 L -13.853,44.0219
 L -13.851,44.0219 L -13.851,43.9803 L -13.8358,43.9087 L -13.806,43.8418 L -13.763,43.7826 L -13.7086,43.7336
 L -13.6452,43.6969 L -13.5755,43.6743 L -13.5077,43.6672 L -13.5077,43.6686 L -13.4661,43.6686 L -13.3945,43.6838
 L -13.3276,43.7136 L -13.2683,43.7566 L -13.2193,43.8111 L -13.1827,43.8745 L -13.1601,43.9441 L -13.1524,44.0169
 L -13.1529,44.0219 L -13.1524,44.0219 L -13.1524,124.645 L -13.1543,124.645 L -13.1543,124.686 L -13.1696,124.758
 L -13.1993,124.825 L -13.2424,124.884 L -13.2968,124.933 L -13.3602,124.97 L -13.4299,124.992 L -13.4977,124.999
 z
M 13.5077,124.998 L 13.4661,124.998 L 13.3945,124.983 L 13.3276,124.953 L 13.2683,124.91 L 13.2193,124.856
 L 13.1827,124.792 L 13.1601,124.723 L 13.1524,124.65 L 13.1529,124.645 L 13.1524,124.645 L 13.1524,44.0219
 L 13.1543,44.0219 L 13.1543,43.9803 L 13.1696,43.9087 L 13.1993,43.8418 L 13.2424,43.7826 L 13.2968,43.7336
 L 13.3602,43.6969 L 13.4299,43.6743 L 13.4977,43.6672 L 13.4977,43.6686 L 13.5393,43.6686 L 13.6109,43.6838
 L 13.6778,43.7136 L 13.7371,43.7566 L 13.7861,43.8111 L 13.8227,43.8745 L 13.8453,43.9441 L 13.853,44.0169
 L 13.8524,44.0219 L 13.853,44.0219 L 13.853,124.645 L 13.851,124.645 L 13.851,124.686 L 13.8358,124.758
 L 13.806,124.825 L 13.763,124.884 L 13.7086,124.933 L 13.6452,124.97 L 13.5755,124.992 L 13.5077,124.999
 z
M -8.0966,124.998 L -8.13823,124.998 L -8.20984,124.983 L -8.27675,124.953 L -8.33598,124.91 L -8.38498,124.856
 L -8.42159,124.792 L -8.44423,124.723 L -8.45187,124.65 L -8.45135,124.645 L -8.45187,124.645 L -8.45187,44.0219
 L -8.44995,44.0219 L -8.44995,43.9803 L -8.43474,43.9087 L -8.40495,43.8418 L -8.36191,43.7826 L -8.3075,43.7336
 L -8.24408,43.6969 L -8.17444,43.6743 L -8.1066,43.6672 L -8.1066,43.6686 L -8.06499,43.6686 L -7.99336,43.6838
 L -7.92647,43.7136 L -7.86723,43.7566 L -7.81824,43.8111 L -7.78162,43.8745 L -7.75899,43.9441 L -7.75134,44.0169
 L -7.75186,44.0219 L -7.75134,44.0219 L -7.75134,124.645 L -7.75325,124.645 L -7.75325,124.686 L -7.76848,124.758
 L -7.79826,124.825 L -7.84131,124.884 L -7.89572,124.933 L -7.95914,124.97 L -8.02878,124.992 L -8.0966,124.999
 z
M 8.1066,124.998 L 8.06499,124.998 L 7.99336,124.983 L 7.92647,124.953 L 7.86723,124.91 L 7.81824,124.856
 L 7.78162,124.792 L 7.75899,124.723 L 7.75134,124.65 L 7.75186,124.645 L 7.75134,124.645 L 7.75134,44.0219
 L 7.75325,44.0219 L 7.75325,43.9803 L 7.76848,43.9087 L 7.79826,43.8418 L 7.84131,43.7826 L 7.89572,43.7336
 L 7.95914,43.6969 L 8.02878,43.6743 L 8.0966,43.6672 L 8.0966,43.6686 L 8.13823,43.6686 L 8.20984,43.6838
 L 8.27675,43.7136 L 8.33598,43.7566 L 8.38498,43.8111 L 8.42159,43.8745 L 8.44423,43.9441 L 8.45187,44.0169
 L 8.45135,44.0219 L 8.45187,44.0219 L 8.45187,124.645 L 8.44995,124.645 L 8.44995,124.686 L 8.43474,124.758
 L 8.40495,124.825 L 8.36191,124.884 L 8.3075,124.933 L 8.24408,124.97 L 8.17444,124.992 L 8.1066,124.999
 z
M -2.69553,124.998 L -2.73714,124.998 L -2.80878,124.983 L -2.87566,124.953 L -2.93491,124.91 L -2.9839,124.856
 L -3.02051,124.792 L -3.04314,124.723 L -3.0508,124.65 L -3.05028,124.645 L -3.0508,124.645 L -3.0508,44.0219
 L -3.04889,44.0219 L -3.04889,43.9803 L -3.03365,43.9087 L -3.00388,43.8418 L -2.96083,43.7826 L -2.90642,43.7336
 L -2.843,43.6969 L -2.77335,43.6743 L -2.70554,43.6672 L -2.70554,43.6686 L -2.66391,43.6686 L -2.59229,43.6838
 L -2.52539,43.7136 L -2.46616,43.7566 L -2.41716,43.8111 L -2.38054,43.8745 L -2.35791,43.9441 L -2.35027,44.0169
 L -2.3508,44.0219 L -2.35027,44.0219 L -2.35027,124.645 L -2.35219,124.645 L -2.35219,124.686 L -2.3674,124.758
 L -2.39719,124.825 L -2.44023,124.884 L -2.49466,124.933 L -2.55806,124.97 L -2.6277,124.992 L -2.69553,124.999
 z
M -18.8988,124.998 L -18.9404,124.998 L -19.012,124.983 L -19.0789,124.953 L -19.1381,124.91 L -19.1871,124.856
 L -19.2238,124.792 L -19.2464,124.723 L -19.254,124.65 L -19.2535,124.645 L -19.254,124.645 L -19.254,44.0219
 L -19.2521,44.0219 L -19.2521,43.9803 L -19.2369,43.9087 L -19.2071,43.8418 L -19.1641,43.7826 L -19.1096,43.7336
 L -19.0462,43.6969 L -18.9766,43.6743 L -18.9088,43.6672 L -18.9088,43.6686 L -18.8672,43.6686 L -18.7955,43.6838
 L -18.7286,43.7136 L -18.6694,43.7566 L -18.6204,43.8111 L -18.5838,43.8745 L -18.5612,43.9441 L -18.5535,44.0169
 L -18.554,44.0219 L -18.5535,44.0219 L -18.5535,124.645 L -18.5554,124.645 L -18.5554,124.686 L -18.5706,124.758
 L -18.6004,124.825 L -18.6435,124.884 L -18.6979,124.933 L -18.7613,124.97 L -18.8309,124.992 L -18.8988,124.999
 z
" stroke="black" fill="lightgray" stroke-width="0.5"/>
</svg>
